<svg width="16" height="16" viewBox="0 0 16 16" fill="none" xmlns="http://www.w3.org/2000/svg">
<path d="M8.00065 8.66665C8.36884 8.66665 8.66732 8.36817 8.66732 7.99998C8.66732 7.63179 8.36884 7.33331 8.00065 7.33331C7.63246 7.33331 7.33398 7.63179 7.33398 7.99998C7.33398 8.36817 7.63246 8.66665 8.00065 8.66665Z" stroke="#2F3133" stroke-width="1.5" stroke-linecap="round" stroke-linejoin="round"/>
<path d="M8.00065 4.00002C8.36884 4.00002 8.66732 3.70154 8.66732 3.33335C8.66732 2.96516 8.36884 2.66669 8.00065 2.66669C7.63246 2.66669 7.33398 2.96516 7.33398 3.33335C7.33398 3.70154 7.63246 4.00002 8.00065 4.00002Z" stroke="#2F3133" stroke-width="1.5" stroke-linecap="round" stroke-linejoin="round"/>
<path d="M8.00065 13.3333C8.36884 13.3333 8.66732 13.0349 8.66732 12.6667C8.66732 12.2985 8.36884 12 8.00065 12C7.63246 12 7.33398 12.2985 7.33398 12.6667C7.33398 13.0349 7.63246 13.3333 8.00065 13.3333Z" stroke="#2F3133" stroke-width="1.5" stroke-linecap="round" stroke-linejoin="round"/>
</svg>
