<svg width="12" height="12" viewBox="0 0 12 12" fill="none" xmlns="http://www.w3.org/2000/svg">
<g clip-path="url(#clip0_1435_11682)">
<path d="M8.99908 5H8.36908C8.18201 4.2755 7.79548 3.61799 7.2534 3.1022C6.71132 2.5864 6.03544 2.233 5.30254 2.08214C4.56964 1.93128 3.80913 1.98902 3.10741 2.2488C2.40568 2.50857 1.7909 2.95997 1.3329 3.55169C0.874911 4.14341 0.592074 4.85174 0.516532 5.59618C0.440991 6.34062 0.575774 7.09132 0.905567 7.76298C1.23536 8.43465 1.74694 9.00034 2.38217 9.39578C3.0174 9.79122 3.75082 10.0006 4.49908 10H8.99908C9.66212 10 10.298 9.73661 10.7668 9.26777C11.2357 8.79893 11.4991 8.16304 11.4991 7.5C11.4991 6.83696 11.2357 6.20107 10.7668 5.73223C10.298 5.26339 9.66212 5 8.99908 5Z" stroke="#888A8A" stroke-width="1.2" stroke-linecap="round" stroke-linejoin="round"/>
</g>
<defs>
<clipPath id="clip0_1435_11682">
<rect width="12" height="12" fill="white"/>
</clipPath>
</defs>
</svg>
